<svg width="59" height="59" viewBox="0 0 59 59" fill="none" xmlns="http://www.w3.org/2000/svg">
<g clip-path="url(#clip0)">
<path fill-rule="evenodd" clip-rule="evenodd" d="M51.686 10.9197H58.9043V14.0513H51.686V55.0173H0V10.9197H48.5544V3.94588H51.686V10.9197Z" fill="white"/>
<path d="M15.8851 30.2942C14.6937 30.2942 13.5758 30.1 12.5316 29.7118C11.4874 29.3236 10.5637 28.7547 9.76049 28.0049L11.4674 25.9768C12.8596 27.1816 14.3724 27.7841 16.0056 27.7841C16.7285 27.7841 17.2841 27.6402 17.6724 27.3523C18.0606 27.0645 18.2546 26.693 18.2546 26.2378C18.2546 25.9165 18.1609 25.6555 17.9735 25.4547C17.7861 25.2539 17.495 25.0831 17.1 24.9426C16.7051 24.802 16.1195 24.6447 15.3429 24.4707C14.2452 24.2163 13.3448 23.9386 12.6421 23.6373C11.9392 23.3362 11.3837 22.9178 10.9753 22.3823C10.5671 21.8468 10.3629 21.1573 10.3629 20.3139C10.3629 19.4706 10.5771 18.7242 11.0055 18.0749C11.4339 17.4257 12.0363 16.9203 12.8127 16.5588C13.5892 16.1973 14.4727 16.0167 15.4634 16.0167C17.5786 16.0167 19.3792 16.6525 20.8651 17.9243L19.319 20.0528C18.7032 19.5576 18.0572 19.1794 17.3811 18.9183C16.7051 18.6573 16.039 18.5267 15.3831 18.5267C14.7672 18.5267 14.2753 18.6673 13.9071 18.9485C13.539 19.2296 13.355 19.5844 13.355 20.0128C13.355 20.3475 13.4519 20.6152 13.6461 20.816C13.8403 21.0168 14.1381 21.1909 14.5397 21.3381C14.9413 21.4854 15.5303 21.646 16.3069 21.82C17.4046 22.061 18.3048 22.3388 19.0077 22.6534C19.7106 22.968 20.2594 23.3863 20.6543 23.9084C21.0493 24.4305 21.2467 25.0999 21.2467 25.9165C21.2467 26.7867 21.0325 27.5531 20.6041 28.2158C20.1758 28.8784 19.5599 29.3905 18.7567 29.752C17.9535 30.1134 16.9963 30.2942 15.8851 30.2942Z" fill="#102132"/>
<path d="M38.6369 27.8848H32.4921L31.6086 30.0535H28.2952L33.9179 16.2579H37.2313L42.8539 30.0535H39.5205L38.6369 27.8848ZM37.6128 25.3748L35.5645 20.3345L33.5163 25.3748H37.6128Z" fill="#102132"/>
<path d="M10.7845 36.3384H13.7364L20.3833 45.2543V36.3384H23.3553V50.134H20.3833L13.7364 41.218V50.134H10.7845V36.3384Z" fill="#102132"/>
<path d="M34.9719 36H32V49.7956H34.9719V36Z" fill="#102132"/>
</g>
<defs>
<clipPath id="clip0">
<rect width="59" height="59" fill="white"/>
</clipPath>
</defs>
</svg>
